<svg id="svg" version="1.1" xmlns="http://www.w3.org/2000/svg" xmlns:xlink="http://www.w3.org/1999/xlink" width="400" height="400" viewBox="0, 0, 400,400"><g id="svgg"><path id="path0" d="M200.562 14.461 C 200.407 14.713,199.585 14.812,198.587 14.700 C 197.128 14.535,196.809 14.636,196.407 15.387 C 195.932 16.274,194.800 16.610,194.800 15.864 C 194.800 15.642,194.356 15.878,193.812 16.388 C 193.269 16.899,192.920 17.470,193.036 17.658 C 193.152 17.846,192.967 18.000,192.624 18.000 C 192.240 18.000,192.000 18.353,192.000 18.920 C 192.000 19.426,191.775 20.082,191.500 20.379 C 191.094 20.816,191.112 20.858,191.600 20.600 C 192.088 20.342,192.106 20.384,191.700 20.821 C 191.309 21.242,191.200 27.938,191.200 51.480 L 191.200 81.600 189.500 81.660 C 188.565 81.693,187.293 81.680,186.674 81.631 C 186.055 81.582,185.155 81.799,184.674 82.114 C 184.122 82.475,183.015 82.644,181.669 82.573 C 180.106 82.490,179.588 82.592,179.727 82.955 C 179.861 83.302,179.555 83.396,178.702 83.271 C 177.751 83.131,177.555 83.213,177.802 83.646 C 178.057 84.094,178.014 84.104,177.579 83.700 C 176.805 82.982,174.800 83.054,174.800 83.800 C 174.800 84.130,174.609 84.400,174.376 84.400 C 174.143 84.400,174.057 84.232,174.184 84.026 C 174.323 83.800,173.975 83.776,173.308 83.964 C 172.698 84.136,171.975 84.200,171.700 84.105 C 171.425 84.011,171.200 84.178,171.200 84.478 C 171.200 84.860,170.732 84.997,169.634 84.935 C 168.615 84.878,167.994 85.038,167.858 85.393 C 167.733 85.719,167.318 85.851,166.822 85.722 C 166.368 85.603,165.753 85.707,165.457 85.952 C 165.161 86.198,164.455 86.437,163.888 86.484 C 163.321 86.531,162.945 86.712,163.052 86.885 C 163.160 87.058,162.607 87.200,161.824 87.200 C 161.041 87.200,160.400 87.380,160.400 87.600 C 160.400 87.820,159.948 88.000,159.395 88.000 C 158.384 88.000,157.082 88.587,156.104 89.483 C 155.814 89.749,155.312 89.864,154.988 89.740 C 154.665 89.616,154.400 89.714,154.400 89.957 C 154.400 90.201,154.119 90.400,153.776 90.400 C 153.394 90.400,153.262 90.593,153.435 90.900 C 153.661 91.300,153.610 91.300,153.179 90.900 C 152.536 90.303,151.850 90.233,152.200 90.800 C 152.336 91.020,152.082 91.200,151.636 91.200 C 151.189 91.200,150.189 91.557,149.412 91.993 C 148.635 92.429,147.997 92.654,147.994 92.493 C 147.991 92.332,147.817 92.470,147.608 92.800 C 147.400 93.130,146.863 93.423,146.415 93.450 C 145.086 93.532,144.973 93.595,145.533 93.950 C 145.890 94.176,145.682 94.274,144.909 94.244 C 143.952 94.208,143.779 94.052,143.913 93.347 C 144.002 92.878,143.878 92.372,143.638 92.223 C 143.397 92.075,143.200 91.603,143.200 91.176 C 143.200 90.749,143.020 90.400,142.800 90.400 C 142.580 90.400,142.400 90.209,142.400 89.976 C 142.400 89.743,142.625 89.688,142.900 89.853 C 143.281 90.082,143.294 90.016,142.955 89.577 C 142.710 89.260,142.390 88.498,142.243 87.884 C 142.097 87.270,141.827 86.860,141.645 86.972 C 141.462 87.085,141.362 86.725,141.423 86.171 C 141.494 85.527,141.258 84.993,140.767 84.686 C 139.822 84.096,139.789 83.699,140.671 83.529 C 141.300 83.408,141.300 83.357,140.671 82.729 C 140.302 82.359,140.000 81.879,140.000 81.662 C 140.000 81.445,139.775 81.162,139.500 81.033 C 139.112 80.852,139.109 80.749,139.486 80.571 C 139.986 80.336,139.459 78.934,138.649 78.345 C 138.456 78.204,138.418 77.895,138.565 77.657 C 138.711 77.420,138.442 76.370,137.966 75.325 C 137.490 74.280,137.100 72.980,137.100 72.436 C 137.100 71.892,136.718 71.108,136.250 70.693 C 135.782 70.278,135.625 70.053,135.900 70.193 C 136.220 70.356,136.400 70.151,136.400 69.624 C 136.400 69.171,136.169 68.800,135.887 68.800 C 135.605 68.800,135.335 68.323,135.287 67.740 C 135.239 67.158,134.997 66.438,134.751 66.140 C 134.504 65.843,134.459 65.595,134.651 65.588 C 134.843 65.581,134.677 65.388,134.282 65.158 C 133.837 64.899,133.651 64.470,133.791 64.027 C 133.916 63.634,133.763 63.101,133.450 62.842 C 133.138 62.583,132.975 62.017,133.088 61.585 C 133.201 61.153,133.136 60.800,132.944 60.800 C 132.752 60.800,132.350 60.246,132.050 59.568 C 131.659 58.685,131.382 58.458,131.072 58.768 C 130.434 59.406,129.824 59.294,130.368 58.638 C 130.743 58.186,130.596 57.957,129.617 57.469 C 128.948 57.135,128.400 57.024,128.400 57.222 C 128.400 57.421,127.956 57.380,127.413 57.133 C 126.869 56.885,126.520 56.529,126.636 56.342 C 126.752 56.154,126.397 56.000,125.847 56.000 C 125.297 56.000,124.736 56.180,124.600 56.400 C 124.464 56.620,123.924 56.800,123.400 56.800 C 122.256 56.800,121.679 57.551,122.449 58.039 C 122.829 58.279,122.596 58.390,121.700 58.394 C 118.282 58.410,115.505 67.459,118.674 68.254 C 119.611 68.489,119.654 68.572,119.063 69.003 C 117.924 69.836,118.349 70.695,119.768 70.425 C 119.970 70.386,119.929 70.604,119.676 70.908 C 119.199 71.483,119.531 73.020,120.602 75.200 C 120.873 75.750,121.004 76.450,120.895 76.756 C 120.773 77.095,120.872 77.203,121.148 77.032 C 121.428 76.859,121.600 77.066,121.600 77.576 C 121.600 78.029,121.791 78.400,122.024 78.400 C 122.257 78.400,122.336 78.580,122.200 78.800 C 122.064 79.020,122.127 79.200,122.339 79.200 C 122.551 79.200,122.628 79.572,122.509 80.026 C 122.314 80.771,122.556 81.551,123.647 83.695 C 123.841 84.077,124.000 84.937,124.000 85.607 C 124.000 86.497,124.243 86.923,124.900 87.188 C 125.395 87.387,125.575 87.561,125.300 87.575 C 125.025 87.589,124.800 87.791,124.800 88.024 C 124.800 88.257,125.011 88.317,125.268 88.158 C 125.583 87.964,125.652 88.087,125.481 88.534 C 125.340 88.900,125.383 89.200,125.575 89.200 C 125.768 89.200,125.831 89.560,125.716 90.000 C 125.594 90.466,125.704 90.800,125.978 90.800 C 126.238 90.800,126.394 91.205,126.325 91.700 C 126.256 92.200,126.398 92.564,126.644 92.519 C 126.889 92.474,127.058 92.834,127.020 93.319 C 126.982 93.803,127.187 94.685,127.475 95.279 C 127.763 95.872,128.049 96.682,128.111 97.079 C 128.173 97.475,128.332 97.980,128.465 98.200 C 128.597 98.420,128.832 99.187,128.986 99.903 C 129.144 100.643,129.443 101.097,129.675 100.953 C 129.934 100.794,129.988 101.009,129.821 101.535 C 129.675 101.994,129.743 102.719,129.971 103.146 C 130.317 103.793,130.269 103.891,129.678 103.736 C 129.288 103.634,128.494 103.967,127.913 104.476 C 127.332 104.984,126.390 105.726,125.820 106.125 C 125.249 106.524,124.907 107.049,125.057 107.293 C 125.234 107.579,125.096 107.646,124.666 107.481 C 124.300 107.340,124.000 107.410,124.000 107.636 C 124.000 107.862,123.820 107.936,123.600 107.800 C 123.380 107.664,123.200 107.728,123.200 107.943 C 123.200 108.158,123.335 108.409,123.500 108.501 C 123.665 108.593,123.575 108.614,123.300 108.547 C 122.609 108.379,121.600 108.806,121.600 109.266 C 121.600 109.476,121.803 109.522,122.052 109.368 C 122.326 109.198,122.431 109.307,122.319 109.644 C 122.217 109.950,121.923 110.222,121.667 110.250 C 121.410 110.278,121.020 110.322,120.800 110.350 C 120.580 110.378,120.445 110.614,120.500 110.876 C 120.555 111.138,120.240 111.428,119.800 111.519 C 118.492 111.792,117.859 112.455,118.481 112.902 C 118.851 113.168,118.790 113.207,118.269 113.038 C 117.779 112.880,117.141 113.198,116.338 114.001 C 115.678 114.660,114.972 115.200,114.769 115.200 C 114.566 115.200,114.400 115.466,114.400 115.791 C 114.400 116.116,113.950 116.676,113.400 117.037 C 112.850 117.397,112.400 117.931,112.400 118.222 C 112.400 118.514,112.192 118.881,111.938 119.038 C 111.627 119.230,111.583 119.140,111.804 118.762 C 111.984 118.453,111.452 118.886,110.622 119.725 C 109.771 120.585,109.088 121.685,109.056 122.245 C 109.017 122.944,108.810 123.191,108.363 123.074 C 108.012 122.982,107.504 123.262,107.233 123.696 C 106.962 124.129,106.917 124.375,107.133 124.241 C 107.349 124.108,107.319 124.435,107.068 124.968 C 106.816 125.501,106.518 125.930,106.405 125.921 C 105.543 125.855,105.200 126.117,105.200 126.843 C 105.200 127.403,105.011 127.613,104.638 127.470 C 104.328 127.351,103.801 127.557,103.466 127.927 C 102.875 128.580,102.800 128.768,102.800 129.587 C 102.800 129.801,102.531 129.872,102.202 129.746 C 101.874 129.619,101.704 129.355,101.826 129.158 C 101.948 128.961,101.767 128.800,101.424 128.800 C 101.081 128.800,100.800 128.601,100.800 128.357 C 100.800 128.114,100.521 128.022,100.179 128.153 C 99.838 128.284,99.661 128.225,99.786 128.023 C 99.911 127.821,99.830 127.542,99.607 127.404 C 99.383 127.266,99.200 127.373,99.200 127.643 C 99.200 128.764,98.566 127.308,98.431 125.876 C 98.414 125.698,98.248 125.647,98.061 125.762 C 97.723 125.971,95.576 123.972,95.461 123.340 C 95.427 123.156,95.157 123.061,94.860 123.129 C 94.563 123.198,94.418 123.094,94.538 122.900 C 94.659 122.705,94.407 122.293,93.979 121.985 C 93.550 121.676,93.200 121.199,93.200 120.924 C 93.200 120.623,92.936 120.526,92.534 120.681 C 92.136 120.833,91.969 120.774,92.118 120.533 C 92.441 120.009,89.456 117.087,89.011 117.492 C 88.824 117.661,88.801 117.575,88.959 117.300 C 89.118 117.025,89.046 116.800,88.800 116.800 C 88.554 116.800,88.483 116.589,88.642 116.332 C 88.840 116.011,88.708 115.950,88.221 116.137 C 87.737 116.322,87.573 116.248,87.705 115.902 C 87.812 115.624,87.427 115.049,86.850 114.625 L 85.800 113.855 86.600 114.800 L 87.400 115.745 86.341 114.973 C 85.759 114.548,85.365 114.065,85.465 113.900 C 85.565 113.735,85.457 113.600,85.224 113.600 C 84.991 113.600,84.845 113.453,84.900 113.273 C 85.021 112.877,80.092 108.000,79.570 108.000 C 79.366 108.000,79.200 107.743,79.200 107.428 C 79.200 107.113,78.795 106.794,78.300 106.718 C 77.805 106.643,77.446 106.356,77.503 106.081 C 77.625 105.491,74.991 102.742,74.640 103.093 C 74.508 103.225,74.400 103.065,74.400 102.736 C 74.400 102.027,69.753 97.751,69.154 97.910 C 68.927 97.970,68.838 97.863,68.956 97.670 C 69.254 97.189,67.644 95.526,67.166 95.821 C 66.954 95.952,66.806 95.911,66.837 95.730 C 66.984 94.888,66.737 94.434,66.008 94.203 C 65.573 94.064,65.258 93.748,65.308 93.499 C 65.359 93.251,65.043 92.970,64.606 92.876 C 64.169 92.782,63.521 92.370,63.165 91.960 C 62.810 91.550,62.402 91.331,62.259 91.474 C 62.117 91.617,62.000 91.543,62.000 91.309 C 62.000 91.076,61.721 90.778,61.379 90.647 C 60.963 90.488,60.850 90.572,61.038 90.905 C 61.256 91.291,61.199 91.290,60.779 90.900 C 60.081 90.252,57.726 90.252,57.465 90.900 C 57.304 91.300,57.257 91.300,57.232 90.900 C 57.214 90.625,57.020 90.400,56.800 90.400 C 56.580 90.400,56.445 90.597,56.500 90.838 C 56.555 91.080,56.186 91.437,55.680 91.633 C 55.088 91.862,54.846 91.849,55.003 91.595 C 55.351 91.033,54.837 91.106,54.239 91.704 C 53.962 91.981,53.819 92.456,53.920 92.759 C 54.031 93.094,53.926 93.201,53.652 93.032 C 53.403 92.878,53.200 92.943,53.200 93.176 C 53.200 93.409,52.949 93.600,52.643 93.600 C 51.919 93.600,51.546 94.586,52.072 95.112 C 52.350 95.390,52.206 95.608,51.619 95.794 C 50.968 96.001,50.863 96.194,51.189 96.587 C 51.508 96.971,51.461 97.168,51.010 97.341 C 50.276 97.622,50.197 99.051,50.900 99.335 C 51.300 99.496,51.300 99.543,50.900 99.568 C 50.625 99.586,50.400 99.791,50.400 100.024 C 50.400 100.257,50.563 100.346,50.763 100.223 C 50.962 100.100,51.031 100.361,50.915 100.804 C 50.756 101.412,51.352 102.236,53.337 104.154 C 54.785 105.552,55.856 106.810,55.718 106.949 C 55.580 107.087,55.767 107.200,56.133 107.200 C 56.537 107.200,56.800 107.521,56.800 108.014 C 56.800 108.704,56.922 108.763,57.600 108.400 C 58.216 108.070,58.400 108.096,58.400 108.511 C 58.400 108.808,58.968 109.579,59.662 110.225 C 60.356 110.871,60.771 111.130,60.585 110.800 C 60.294 110.284,60.341 110.276,60.919 110.745 C 61.289 111.045,61.500 111.438,61.389 111.618 C 61.278 111.798,61.382 112.065,61.621 112.213 C 61.859 112.360,61.961 112.724,61.848 113.020 C 61.708 113.385,61.849 113.479,62.286 113.312 C 62.684 113.159,62.831 113.226,62.670 113.487 C 62.318 114.056,63.442 114.945,64.044 114.573 C 64.356 114.380,64.419 114.446,64.223 114.763 C 63.888 115.304,65.117 116.898,65.626 116.584 C 65.801 116.476,66.075 116.598,66.234 116.855 C 66.432 117.176,66.346 117.217,65.962 116.985 C 65.483 116.697,65.481 116.747,65.949 117.323 C 66.251 117.695,66.746 118.000,67.049 118.000 C 67.352 118.000,67.579 118.135,67.553 118.300 C 67.426 119.102,67.660 119.249,68.265 118.749 C 68.869 118.251,68.886 118.284,68.451 119.100 C 68.048 119.858,68.073 120.000,68.610 120.000 C 68.960 120.000,69.165 120.135,69.065 120.300 C 68.965 120.465,69.314 120.923,69.841 121.319 C 70.369 121.714,70.800 121.864,70.800 121.652 C 70.800 121.440,70.575 121.176,70.300 121.065 C 69.907 120.906,69.909 120.856,70.310 120.832 C 70.590 120.814,70.976 121.205,71.167 121.700 C 71.631 122.902,73.523 124.495,74.079 124.151 C 74.354 123.982,74.411 124.059,74.229 124.354 C 74.049 124.644,74.536 125.388,75.467 126.248 C 76.310 127.027,76.955 127.830,76.900 128.032 C 76.845 128.235,77.081 128.400,77.424 128.400 C 77.767 128.400,77.944 128.567,77.818 128.771 C 77.692 128.975,77.965 129.262,78.424 129.408 C 78.884 129.554,79.152 129.781,79.021 129.913 C 78.889 130.044,79.280 130.391,79.891 130.682 C 80.501 130.974,80.640 131.109,80.200 130.983 C 79.656 130.828,79.966 131.333,81.172 132.566 C 82.657 134.084,83.047 134.299,83.572 133.889 C 84.112 133.469,84.130 133.490,83.703 134.037 C 83.276 134.585,84.894 136.800,85.721 136.800 C 86.060 136.800,92.800 143.617,92.800 143.959 C 92.800 144.175,92.272 145.370,91.627 146.613 C 90.982 147.857,90.552 149.130,90.671 149.442 C 90.827 149.847,90.692 149.933,90.198 149.744 C 89.635 149.528,89.558 149.638,89.781 150.339 C 89.939 150.836,89.881 151.200,89.646 151.200 C 89.188 151.200,87.668 154.408,87.324 156.100 C 87.201 156.705,86.959 157.200,86.787 157.200 C 86.616 157.200,86.576 157.588,86.700 158.063 C 86.848 158.626,86.775 158.832,86.491 158.656 C 86.251 158.508,85.942 158.570,85.804 158.793 C 85.666 159.017,85.877 159.200,86.272 159.200 C 86.862 159.200,86.790 159.387,85.872 160.238 C 85.085 160.968,84.788 161.591,84.872 162.338 C 84.948 163.017,84.813 163.364,84.496 163.300 C 84.223 163.245,84.000 163.524,84.000 163.920 C 84.000 164.316,83.784 164.856,83.520 165.120 C 83.147 165.493,83.169 165.601,83.620 165.606 C 83.964 165.610,84.037 165.732,83.800 165.906 C 83.229 166.325,82.253 168.138,82.770 167.818 C 83.007 167.672,83.200 167.733,83.200 167.953 C 83.200 168.173,83.019 168.464,82.799 168.601 C 82.578 168.737,82.502 169.333,82.631 169.925 C 82.790 170.658,82.745 170.830,82.488 170.466 C 82.182 170.033,82.066 170.052,81.868 170.566 C 81.735 170.915,81.784 171.200,81.978 171.200 C 82.172 171.200,82.003 171.873,81.603 172.696 C 81.067 173.798,80.981 174.391,81.277 174.945 C 81.535 175.426,81.538 175.609,81.285 175.453 C 81.068 175.319,80.797 175.567,80.683 176.004 C 80.569 176.442,80.651 176.800,80.866 176.800 C 81.081 176.800,80.974 177.083,80.629 177.429 C 79.870 178.187,79.829 178.664,80.500 178.936 C 80.876 179.089,80.852 179.244,80.400 179.563 C 80.070 179.797,79.971 179.991,80.180 179.994 C 80.389 179.997,80.344 180.216,80.080 180.480 C 79.816 180.744,79.603 181.149,79.606 181.380 C 79.609 181.611,79.788 181.530,80.002 181.200 C 80.300 180.741,80.372 180.861,80.308 181.709 C 80.259 182.360,80.033 182.745,79.761 182.640 C 79.458 182.524,79.335 182.901,79.406 183.731 C 79.468 184.468,79.238 185.322,78.857 185.769 C 78.496 186.192,78.425 186.406,78.700 186.245 C 79.233 185.933,79.416 186.619,78.887 186.946 C 78.715 187.053,78.604 188.141,78.641 189.365 C 78.678 190.589,78.549 191.492,78.354 191.372 C 78.159 191.251,78.000 191.598,78.000 192.143 C 78.000 192.688,78.225 193.209,78.500 193.302 C 78.878 193.429,78.889 193.608,78.545 194.035 C 78.049 194.651,77.619 198.000,78.036 198.000 C 78.177 198.000,78.147 198.765,77.969 199.700 C 77.594 201.670,77.467 291.587,77.838 292.554 C 78.195 293.486,319.701 293.556,320.632 292.625 C 321.760 291.497,321.166 191.119,320.034 191.476 C 319.640 191.600,319.562 191.548,319.829 191.338 C 320.679 190.669,320.735 189.681,319.971 188.861 C 319.180 188.012,318.987 187.147,319.478 186.655 C 320.041 186.092,319.955 184.986,319.310 184.500 C 318.855 184.157,318.812 184.000,319.173 184.000 C 319.563 184.000,319.585 183.864,319.258 183.470 C 319.017 183.179,318.906 182.504,319.012 181.970 C 319.311 180.474,318.823 178.800,318.088 178.800 C 317.584 178.800,317.547 178.693,317.920 178.320 C 318.444 177.796,318.596 175.431,318.086 175.747 C 317.795 175.927,317.650 175.275,317.581 173.479 C 317.566 173.082,317.326 172.670,317.048 172.563 C 316.732 172.442,316.611 171.905,316.725 171.128 C 316.839 170.354,316.755 169.980,316.504 170.136 C 316.272 170.279,316.100 169.944,316.100 169.347 C 316.100 168.776,315.853 168.152,315.550 167.961 C 315.170 167.720,315.151 167.610,315.487 167.606 C 315.756 167.603,315.872 167.331,315.746 167.002 C 315.619 166.674,315.372 166.494,315.195 166.603 C 315.019 166.712,314.971 166.432,315.089 165.981 C 315.220 165.479,314.992 164.820,314.502 164.281 C 314.061 163.796,313.488 162.950,313.228 162.400 C 312.800 161.494,312.811 161.468,313.340 162.124 C 313.661 162.522,314.028 162.677,314.157 162.469 C 314.286 162.261,314.125 161.870,313.800 161.600 C 313.475 161.330,313.300 160.962,313.411 160.782 C 313.522 160.602,313.430 160.342,313.207 160.204 C 312.983 160.066,312.800 159.503,312.800 158.953 C 312.800 158.388,312.626 158.060,312.400 158.200 C 312.180 158.336,312.000 158.084,312.000 157.639 C 312.000 157.195,311.762 156.609,311.471 156.337 C 311.179 156.065,311.020 155.428,311.117 154.921 C 311.216 154.404,311.097 154.000,310.847 154.000 C 310.601 154.000,310.400 153.745,310.400 153.433 C 310.400 153.122,310.175 152.785,309.900 152.685 C 309.157 152.414,310.062 151.069,311.161 150.809 C 311.649 150.694,312.063 150.420,312.083 150.200 C 312.165 149.271,312.968 148.519,313.680 148.705 C 314.162 148.831,314.392 148.715,314.317 148.384 C 314.253 148.099,314.604 147.655,315.098 147.397 C 315.591 147.139,315.883 146.816,315.746 146.679 C 315.609 146.542,315.925 146.228,316.448 145.981 C 316.972 145.735,317.940 144.836,318.600 143.985 C 319.260 143.134,320.013 142.429,320.273 142.419 C 320.533 142.408,320.861 142.037,321.002 141.594 C 321.143 141.151,321.425 140.892,321.629 141.018 C 321.833 141.144,322.000 140.956,322.000 140.600 C 322.000 140.244,322.180 140.064,322.400 140.200 C 322.620 140.336,322.800 140.167,322.800 139.824 C 322.800 139.481,323.081 139.200,323.424 139.200 C 323.767 139.200,323.936 139.020,323.800 138.800 C 323.664 138.580,323.721 138.400,323.927 138.400 C 324.435 138.400,334.200 128.706,334.200 128.201 C 334.200 127.980,334.380 127.797,334.600 127.794 C 335.295 127.783,336.022 127.160,335.786 126.777 C 335.660 126.573,335.866 126.527,336.249 126.674 C 336.771 126.875,336.878 126.781,336.690 126.290 C 336.523 125.854,336.614 125.707,336.969 125.843 C 337.521 126.055,338.150 124.966,337.801 124.401 C 337.690 124.222,337.987 124.176,338.462 124.300 C 338.937 124.424,339.236 124.363,339.126 124.163 C 338.922 123.790,340.163 122.400,340.700 122.400 C 340.865 122.400,341.023 122.220,341.050 122.000 C 341.078 121.780,341.123 121.426,341.150 121.213 C 341.178 120.999,341.425 120.906,341.700 121.004 C 341.975 121.102,342.617 120.505,343.126 119.677 C 343.636 118.849,344.580 117.818,345.225 117.386 C 345.870 116.953,346.398 116.375,346.399 116.100 C 346.399 115.825,346.625 115.645,346.900 115.700 C 347.175 115.755,347.400 115.530,347.400 115.200 C 347.400 114.579,347.941 114.017,348.549 114.006 C 348.741 114.003,348.651 114.315,348.349 114.700 C 347.852 115.333,347.866 115.348,348.496 114.855 C 348.878 114.555,349.093 114.150,348.972 113.955 C 348.851 113.760,349.078 113.597,349.476 113.594 C 350.035 113.589,350.076 113.509,349.657 113.244 C 349.279 113.004,349.249 112.817,349.557 112.626 C 349.801 112.476,350.000 112.475,350.000 112.625 C 350.000 112.775,350.274 112.671,350.609 112.393 C 350.997 112.070,351.121 111.582,350.951 111.047 C 350.706 110.274,350.744 110.254,351.419 110.803 C 351.823 111.131,352.028 111.190,351.874 110.934 C 351.721 110.678,351.804 110.399,352.058 110.314 C 352.313 110.229,352.551 109.808,352.586 109.380 C 352.621 108.951,352.832 108.240,353.056 107.800 C 353.977 105.988,351.741 99.278,350.750 100.881 C 350.524 101.245,350.300 101.031,349.997 100.162 C 349.497 98.728,347.419 97.822,346.199 98.505 C 345.706 98.781,345.571 98.770,345.756 98.471 C 345.931 98.189,345.470 98.064,344.411 98.106 C 343.525 98.141,342.800 98.299,342.800 98.457 C 342.800 98.615,342.395 98.806,341.900 98.882 C 341.405 98.957,341.043 99.233,341.095 99.495 C 341.148 99.757,340.949 99.878,340.653 99.765 C 340.080 99.545,336.400 102.871,336.400 103.609 C 336.400 103.850,336.220 103.936,336.000 103.800 C 335.780 103.664,335.600 103.844,335.600 104.200 C 335.600 104.592,335.416 104.733,335.132 104.558 C 334.820 104.365,334.747 104.484,334.912 104.914 C 335.086 105.367,334.987 105.493,334.580 105.337 C 334.179 105.183,333.990 105.405,333.968 106.057 C 333.951 106.576,333.848 106.780,333.739 106.512 C 333.583 106.127,333.429 106.127,333.013 106.512 C 332.722 106.780,332.566 107.135,332.666 107.300 C 332.765 107.465,332.572 107.600,332.236 107.600 C 331.831 107.600,331.711 107.824,331.881 108.266 C 332.051 108.710,331.982 108.836,331.673 108.645 C 331.127 108.307,328.134 110.948,327.773 112.086 C 327.638 112.512,327.445 112.779,327.346 112.679 C 327.112 112.446,324.916 114.636,324.381 115.636 C 324.156 116.056,323.790 116.400,323.567 116.400 C 323.344 116.400,322.747 116.847,322.241 117.393 C 321.735 117.940,321.203 118.270,321.060 118.127 C 320.814 117.881,320.624 118.974,320.775 119.768 C 320.814 119.970,320.610 119.942,320.323 119.706 C 319.587 119.101,316.684 122.431,317.070 123.437 C 317.275 123.972,317.184 124.080,316.690 123.890 C 316.233 123.714,316.107 123.812,316.263 124.220 C 316.386 124.539,316.301 124.800,316.076 124.800 C 315.851 124.800,315.606 124.619,315.532 124.397 C 315.458 124.175,314.678 124.643,313.799 125.435 C 312.920 126.228,312.389 126.781,312.619 126.665 C 312.850 126.548,313.300 126.628,313.619 126.843 C 314.122 127.181,314.119 127.225,313.600 127.169 C 312.457 127.047,311.954 127.202,312.200 127.600 C 312.336 127.820,312.246 128.000,312.000 128.000 C 311.754 128.000,311.651 128.160,311.772 128.355 C 311.893 128.550,311.709 128.943,311.365 129.229 C 310.848 129.658,310.676 129.648,310.376 129.174 C 310.084 128.714,310.011 128.752,310.006 129.367 C 310.003 129.788,309.883 130.017,309.741 129.874 C 309.508 129.641,308.000 131.056,308.000 131.507 C 308.000 131.609,308.495 131.373,309.100 130.984 L 310.200 130.276 309.427 131.151 C 309.001 131.632,308.371 131.979,308.027 131.923 C 306.899 131.738,306.289 132.377,306.867 133.136 C 307.146 133.501,307.229 133.680,307.053 133.533 C 306.599 133.155,304.353 134.000,304.628 134.445 C 304.753 134.648,305.023 134.709,305.228 134.583 C 305.432 134.456,305.600 134.543,305.600 134.776 C 305.600 135.009,305.349 135.200,305.041 135.200 C 304.734 135.200,303.953 135.804,303.305 136.541 C 302.198 137.802,300.158 137.762,300.941 136.495 C 301.063 136.298,300.644 135.570,300.011 134.876 C 299.377 134.182,298.739 133.238,298.593 132.777 C 298.277 131.782,295.852 129.200,295.233 129.200 C 294.995 129.200,294.800 128.649,294.800 127.976 C 294.800 127.263,294.633 126.856,294.400 127.000 C 294.180 127.136,294.000 126.967,294.000 126.624 C 294.000 126.074,293.259 125.791,292.270 125.963 C 292.089 125.994,292.062 125.823,292.211 125.583 C 292.364 125.335,292.113 125.050,291.632 124.924 C 290.959 124.748,290.879 124.587,291.245 124.146 C 291.606 123.710,291.500 123.395,290.753 122.689 C 290.229 122.193,289.350 121.207,288.800 120.498 C 288.250 119.788,287.618 119.206,287.395 119.204 C 287.172 119.202,286.805 118.795,286.580 118.300 C 286.355 117.805,285.952 117.445,285.685 117.500 C 285.418 117.555,285.200 117.407,285.200 117.171 C 285.200 116.667,284.168 115.565,283.714 115.586 C 283.541 115.594,283.392 115.375,283.382 115.100 C 283.372 114.825,283.147 114.645,282.882 114.700 C 282.617 114.755,282.445 114.586,282.500 114.324 C 282.555 114.063,281.765 113.388,280.746 112.824 C 279.726 112.261,278.849 111.620,278.798 111.400 C 278.623 110.644,277.798 109.735,276.600 108.978 C 275.940 108.560,275.250 107.980,275.068 107.687 C 274.794 107.249,274.622 107.248,274.091 107.678 C 273.605 108.071,273.521 108.076,273.749 107.697 C 273.929 107.396,273.800 107.098,273.425 106.954 C 272.621 106.646,272.621 105.322,273.426 104.517 C 273.863 104.080,273.925 103.765,273.631 103.471 C 273.338 103.178,273.405 102.836,273.855 102.339 C 274.210 101.947,274.500 101.171,274.500 100.613 C 274.500 100.056,274.662 99.600,274.859 99.600 C 275.057 99.600,275.148 98.960,275.062 98.177 C 274.950 97.161,275.047 96.809,275.403 96.946 C 275.721 97.068,275.900 96.759,275.900 96.085 C 275.900 95.507,276.103 94.966,276.350 94.883 C 276.598 94.801,276.800 94.309,276.800 93.790 C 276.800 93.272,276.981 92.736,277.201 92.599 C 277.422 92.463,277.492 91.910,277.357 91.371 C 277.166 90.611,277.244 90.442,277.705 90.619 C 278.097 90.769,278.298 90.600,278.295 90.124 C 278.286 88.714,278.405 88.356,278.800 88.600 C 279.023 88.738,279.200 88.431,279.200 87.904 C 279.200 87.385,279.410 86.750,279.667 86.493 C 280.023 86.137,279.976 85.966,279.469 85.771 C 279.104 85.631,278.906 85.352,279.030 85.152 C 279.154 84.951,279.404 84.879,279.586 84.991 C 279.995 85.244,280.486 84.062,280.178 83.564 C 280.054 83.364,280.124 83.200,280.334 83.200 C 280.543 83.200,280.822 82.921,280.953 82.579 C 281.084 82.238,281.030 82.058,280.833 82.180 C 280.636 82.302,280.568 82.043,280.683 81.605 C 280.797 81.167,281.050 80.908,281.245 81.028 C 281.440 81.149,281.600 80.697,281.600 80.024 C 281.600 79.351,281.780 78.800,282.000 78.800 C 282.220 78.800,282.400 78.626,282.400 78.413 C 282.400 78.199,282.085 78.123,281.700 78.243 C 281.046 78.446,281.046 78.431,281.708 78.006 C 282.098 77.755,282.324 77.401,282.211 77.217 C 282.097 77.034,282.274 76.781,282.602 76.654 C 282.931 76.528,283.200 75.980,283.200 75.436 C 283.200 74.892,283.380 74.336,283.600 74.200 C 283.820 74.064,284.000 73.503,284.000 72.953 C 284.000 72.299,284.160 72.052,284.462 72.238 C 284.754 72.419,284.815 72.348,284.627 72.044 C 284.464 71.781,284.535 71.319,284.785 71.018 C 285.102 70.636,285.111 70.392,284.813 70.208 C 284.579 70.063,284.492 69.774,284.621 69.566 C 284.750 69.357,285.053 69.309,285.296 69.459 C 285.563 69.624,285.651 69.509,285.521 69.166 C 285.402 68.855,285.485 68.150,285.704 67.600 C 286.356 65.967,286.448 64.278,285.905 63.926 C 285.510 63.671,285.531 63.514,286.000 63.206 C 286.519 62.866,286.327 62.652,285.573 62.728 C 285.448 62.741,285.423 62.222,285.518 61.576 C 285.623 60.864,285.512 60.400,285.237 60.400 C 284.987 60.400,284.578 59.950,284.327 59.400 C 284.077 58.850,283.620 58.400,283.312 58.400 C 283.005 58.400,282.864 58.220,283.000 58.000 C 283.136 57.780,282.877 57.600,282.424 57.600 C 281.971 57.600,281.597 57.375,281.594 57.100 C 281.589 56.732,281.497 56.743,281.244 57.143 C 281.042 57.462,280.801 57.525,280.660 57.297 C 280.169 56.503,274.818 56.782,274.289 57.629 C 274.024 58.053,273.446 58.413,273.004 58.428 C 272.202 58.456,272.202 58.457,273.000 58.800 C 273.709 59.105,273.675 59.147,272.700 59.172 C 272.095 59.187,271.600 59.374,271.600 59.587 C 271.600 59.801,271.915 59.868,272.300 59.738 C 272.767 59.580,272.699 59.726,272.093 60.178 C 271.595 60.550,271.307 61.050,271.455 61.289 C 271.616 61.549,271.538 61.609,271.261 61.438 C 270.743 61.117,269.919 62.885,270.093 63.945 C 270.152 64.305,269.975 64.555,269.700 64.500 C 269.425 64.445,269.221 64.535,269.247 64.700 C 269.457 66.029,269.135 68.007,268.748 67.768 C 268.474 67.598,268.370 67.707,268.483 68.044 C 268.586 68.350,268.419 68.786,268.111 69.012 C 267.803 69.239,267.535 69.998,267.515 70.699 C 267.495 71.399,267.326 71.878,267.140 71.763 C 266.953 71.647,266.800 71.923,266.800 72.376 C 266.800 72.829,266.650 73.200,266.467 73.200 C 266.283 73.200,266.133 73.470,266.133 73.800 C 266.133 74.130,266.368 74.400,266.654 74.400 C 266.965 74.400,267.077 74.655,266.932 75.034 C 266.798 75.383,266.579 75.492,266.444 75.278 C 266.298 75.045,265.993 75.111,265.684 75.444 C 265.401 75.750,265.268 76.000,265.390 76.000 C 265.511 76.000,265.335 76.659,264.999 77.464 C 264.662 78.270,264.492 79.260,264.620 79.664 C 264.749 80.069,264.662 80.400,264.427 80.400 C 264.192 80.400,264.000 80.745,264.000 81.167 C 264.000 81.589,263.610 82.804,263.133 83.867 C 262.656 84.930,262.244 85.890,262.218 86.000 C 262.193 86.110,261.978 86.560,261.741 87.000 C 261.504 87.440,261.344 88.197,261.387 88.681 C 261.429 89.166,261.314 89.471,261.132 89.358 C 260.851 89.184,260.600 90.732,260.753 91.700 C 260.779 91.865,260.530 92.000,260.200 92.000 C 259.870 92.000,259.600 92.191,259.600 92.424 C 259.600 92.657,259.778 92.737,259.995 92.603 C 260.222 92.463,260.289 92.623,260.153 92.979 C 260.022 93.321,259.743 93.600,259.534 93.600 C 259.324 93.600,259.256 93.768,259.383 93.972 C 259.509 94.177,259.418 94.465,259.179 94.613 C 258.941 94.760,258.838 95.121,258.950 95.415 C 259.063 95.708,258.940 96.023,258.678 96.113 C 258.067 96.325,255.600 95.172,255.600 94.676 C 255.600 94.469,255.060 94.408,254.400 94.540 C 253.372 94.746,253.200 94.660,253.200 93.941 C 253.200 93.241,253.101 93.184,252.600 93.600 C 252.047 94.059,251.825 93.879,251.959 93.081 C 251.988 92.906,251.785 92.792,251.506 92.828 C 250.485 92.962,249.959 92.790,250.200 92.400 C 250.347 92.161,249.863 92.000,249.000 92.000 C 248.204 92.000,247.652 91.840,247.773 91.644 C 248.071 91.161,245.309 89.886,244.734 90.241 C 244.452 90.415,244.386 90.346,244.562 90.062 C 244.754 89.751,244.447 89.600,243.624 89.600 C 242.951 89.600,242.400 89.420,242.400 89.200 C 242.400 88.980,242.130 88.800,241.800 88.800 C 241.470 88.800,241.200 88.989,241.200 89.220 C 241.200 89.451,240.631 89.108,239.935 88.458 C 239.239 87.807,238.426 87.368,238.130 87.482 C 237.833 87.596,237.338 87.480,237.030 87.225 C 236.472 86.762,234.836 86.314,233.500 86.258 C 233.115 86.242,232.800 86.102,232.800 85.947 C 232.800 85.793,232.170 85.716,231.400 85.777 C 230.047 85.885,229.477 85.450,230.500 85.091 C 230.775 84.995,230.505 84.886,229.900 84.850 C 227.863 84.727,227.600 84.668,227.600 84.333 C 227.600 84.150,227.426 84.000,227.213 84.000 C 226.999 84.000,226.934 84.315,227.066 84.700 C 227.261 85.264,227.187 85.244,226.687 84.601 C 226.345 84.161,225.953 83.913,225.816 84.051 C 225.563 84.304,220.350 83.063,219.526 82.554 C 219.229 82.371,219.186 82.468,219.397 82.838 C 219.656 83.293,219.614 83.304,219.179 82.900 C 218.574 82.339,217.841 82.219,218.159 82.733 C 218.272 82.917,218.103 83.067,217.782 83.067 C 217.462 83.067,217.200 82.905,217.200 82.706 C 217.200 82.508,216.840 82.460,216.400 82.600 C 215.941 82.746,215.600 82.672,215.600 82.427 C 215.600 82.192,215.409 82.000,215.176 82.000 C 214.940 82.000,214.889 82.221,215.061 82.500 C 215.230 82.775,214.876 82.678,214.274 82.284 C 213.672 81.890,212.599 81.608,211.890 81.656 C 211.180 81.704,209.835 81.711,208.900 81.672 L 207.200 81.600 207.200 50.289 C 207.200 16.942,207.214 17.200,205.354 17.200 C 205.023 17.200,204.849 17.044,204.967 16.853 C 205.371 16.199,203.710 15.113,202.729 15.390 C 202.133 15.558,201.983 15.524,202.311 15.296 C 202.692 15.030,202.569 14.823,201.826 14.484 C 201.117 14.162,200.751 14.155,200.562 14.461 " stroke="none" fill="#fc3c2c" fill-rule="evenodd"></path><path id="path1" d="M74.800 308.000 C 74.800 308.220,74.161 308.400,73.380 308.400 C 71.257 308.400,68.400 310.238,68.400 311.605 C 68.400 311.822,68.220 312.000,68.000 312.000 C 67.780 312.000,67.600 312.540,67.600 313.200 C 67.600 313.860,67.420 314.400,67.200 314.400 C 66.980 314.400,66.800 314.940,66.800 315.600 C 66.800 316.260,66.620 316.800,66.400 316.800 C 66.180 316.800,66.000 317.340,66.000 318.000 C 66.000 318.660,65.820 319.200,65.600 319.200 C 65.380 319.200,65.200 319.740,65.200 320.400 C 65.200 321.060,65.020 321.600,64.800 321.600 C 64.580 321.600,64.400 322.140,64.400 322.800 C 64.400 323.460,64.220 324.000,64.000 324.000 C 63.780 324.000,63.600 324.439,63.600 324.976 C 63.600 325.513,63.420 326.064,63.200 326.200 C 62.980 326.336,62.800 326.887,62.800 327.424 C 62.800 327.961,62.620 328.400,62.400 328.400 C 62.180 328.400,62.000 328.940,62.000 329.600 C 62.000 330.260,61.820 330.800,61.600 330.800 C 61.380 330.800,61.200 331.340,61.200 332.000 C 61.200 332.660,61.020 333.200,60.800 333.200 C 60.580 333.200,60.400 333.740,60.400 334.400 C 60.400 335.060,60.220 335.600,60.000 335.600 C 59.780 335.600,59.600 336.129,59.600 336.776 C 59.600 337.423,59.437 338.054,59.237 338.177 C 59.038 338.300,58.751 339.301,58.600 340.400 C 58.449 341.500,58.162 342.400,57.962 342.400 C 57.763 342.400,57.600 342.940,57.600 343.600 C 57.600 344.260,57.420 344.800,57.200 344.800 C 56.980 344.800,56.800 345.340,56.800 346.000 C 56.800 346.660,56.620 347.200,56.400 347.200 C 56.180 347.200,56.000 347.740,56.000 348.400 C 56.000 349.060,55.820 349.600,55.600 349.600 C 55.380 349.600,55.200 350.140,55.200 350.800 C 55.200 351.460,55.020 352.000,54.800 352.000 C 54.580 352.000,54.400 352.540,54.400 353.200 C 54.400 353.860,54.220 354.400,54.000 354.400 C 53.780 354.400,53.600 354.940,53.600 355.600 C 53.600 356.260,53.420 356.800,53.200 356.800 C 52.980 356.800,52.800 357.239,52.800 357.776 C 52.800 358.313,52.620 358.864,52.400 359.000 C 52.180 359.136,52.000 359.687,52.000 360.224 C 52.000 360.761,51.820 361.200,51.600 361.200 C 51.380 361.200,51.200 361.740,51.200 362.400 C 51.200 363.060,51.020 363.600,50.800 363.600 C 50.580 363.600,50.400 364.140,50.400 364.800 C 50.400 365.460,50.220 366.000,50.000 366.000 C 49.780 366.000,49.600 366.540,49.600 367.200 C 49.600 367.860,49.420 368.400,49.200 368.400 C 48.980 368.400,48.800 368.940,48.800 369.600 C 48.800 370.260,48.620 370.800,48.400 370.800 C 48.180 370.800,48.000 371.340,48.000 372.000 C 48.000 372.660,47.820 373.200,47.600 373.200 C 47.380 373.200,47.200 373.740,47.200 374.400 C 47.200 375.060,47.020 375.600,46.800 375.600 C 46.277 375.600,46.277 380.277,46.800 380.600 C 47.020 380.736,47.200 381.130,47.200 381.477 C 47.200 381.823,47.527 382.397,47.928 382.753 C 48.328 383.109,48.772 383.715,48.915 384.100 C 49.058 384.485,49.451 384.800,49.787 384.800 C 50.124 384.800,50.400 384.980,50.400 385.200 C 50.400 385.420,50.760 385.600,51.200 385.600 C 51.640 385.600,52.000 385.780,52.000 386.000 C 52.000 386.266,101.333 386.400,199.200 386.400 C 297.067 386.400,346.400 386.266,346.400 386.000 C 346.400 385.780,346.815 385.600,347.322 385.600 C 348.404 385.600,351.200 383.182,351.200 382.246 C 351.200 381.891,351.380 381.600,351.600 381.600 C 351.835 381.600,352.000 380.200,352.000 378.200 C 352.000 376.200,351.835 374.800,351.600 374.800 C 351.380 374.800,351.200 374.260,351.200 373.600 C 351.200 372.940,351.020 372.400,350.800 372.400 C 350.580 372.400,350.400 371.860,350.400 371.200 C 350.400 370.540,350.220 370.000,350.000 370.000 C 349.780 370.000,349.600 369.460,349.600 368.800 C 349.600 368.140,349.420 367.600,349.200 367.600 C 348.980 367.600,348.800 367.060,348.800 366.400 C 348.800 365.740,348.620 365.200,348.400 365.200 C 348.180 365.200,348.000 364.660,348.000 364.000 C 348.000 363.340,347.820 362.800,347.600 362.800 C 347.380 362.800,347.200 362.260,347.200 361.600 C 347.200 360.940,347.020 360.400,346.800 360.400 C 346.580 360.400,346.400 359.950,346.400 359.400 C 346.400 358.850,346.220 358.400,346.000 358.400 C 345.780 358.400,345.600 357.860,345.600 357.200 C 345.600 356.540,345.420 356.000,345.200 356.000 C 344.980 356.000,344.800 355.460,344.800 354.800 C 344.800 354.140,344.620 353.600,344.400 353.600 C 344.180 353.600,344.000 353.060,344.000 352.400 C 344.000 351.740,343.820 351.200,343.600 351.200 C 343.380 351.200,343.200 350.660,343.200 350.000 C 343.200 349.340,343.020 348.800,342.800 348.800 C 342.580 348.800,342.400 348.260,342.400 347.600 C 342.400 346.940,342.241 346.400,342.046 346.400 C 341.851 346.400,341.568 345.410,341.417 344.200 C 341.266 342.990,340.975 342.000,340.771 342.000 C 340.567 342.000,340.400 341.460,340.400 340.800 C 340.400 340.140,340.220 339.600,340.000 339.600 C 339.780 339.600,339.600 339.060,339.600 338.400 C 339.600 337.740,339.420 337.200,339.200 337.200 C 338.980 337.200,338.800 336.660,338.800 336.000 C 338.800 335.340,338.620 334.800,338.400 334.800 C 338.180 334.800,338.000 334.260,338.000 333.600 C 338.000 332.940,337.820 332.400,337.600 332.400 C 337.380 332.400,337.200 331.860,337.200 331.200 C 337.200 330.540,337.020 330.000,336.800 330.000 C 336.580 330.000,336.400 329.460,336.400 328.800 C 336.400 328.140,336.220 327.600,336.000 327.600 C 335.780 327.600,335.600 327.150,335.600 326.600 C 335.600 326.050,335.420 325.600,335.200 325.600 C 334.980 325.600,334.800 325.060,334.800 324.400 C 334.800 323.740,334.620 323.200,334.400 323.200 C 334.180 323.200,334.000 322.660,334.000 322.000 C 334.000 321.340,333.820 320.800,333.600 320.800 C 333.380 320.800,333.200 320.260,333.200 319.600 C 333.200 318.940,333.020 318.400,332.800 318.400 C 332.580 318.400,332.400 317.860,332.400 317.200 C 332.400 316.540,332.220 316.000,332.000 316.000 C 331.780 316.000,331.600 315.460,331.600 314.800 C 331.600 314.140,331.420 313.600,331.200 313.600 C 330.980 313.600,330.800 313.240,330.800 312.800 C 330.800 312.360,330.620 312.000,330.400 312.000 C 330.180 312.000,330.000 311.706,330.000 311.347 C 330.000 310.346,327.977 308.816,326.291 308.541 C 325.461 308.406,324.686 308.139,324.568 307.947 C 324.255 307.441,74.800 307.494,74.800 308.000 " stroke="none" fill="#040404" fill-rule="evenodd"></path><path id="path2" d="M199.100 13.891 C 197.009 14.110,197.213 14.857,199.333 14.747 C 200.458 14.689,201.067 14.472,201.067 14.129 C 201.067 13.838,200.962 13.630,200.833 13.667 C 200.705 13.704,199.925 13.805,199.100 13.891 M194.266 15.767 C 193.544 16.445,193.369 16.654,193.877 16.230 C 194.413 15.783,194.800 15.657,194.800 15.930 C 194.800 16.550,195.670 16.356,196.286 15.600 C 197.563 14.032,195.973 14.163,194.266 15.767 M202.400 14.800 C 202.894 15.119,202.900 15.189,202.433 15.194 C 202.122 15.197,201.961 15.294,202.076 15.409 C 202.191 15.525,202.580 15.506,202.940 15.368 C 203.736 15.062,203.415 14.398,202.476 14.406 C 201.893 14.411,201.883 14.466,202.400 14.800 M121.164 58.031 C 120.753 58.291,120.899 58.389,121.700 58.394 C 122.894 58.401,123.110 58.204,122.264 57.880 C 121.969 57.767,121.474 57.835,121.164 58.031 M271.376 60.173 C 270.715 60.661,270.683 60.824,271.159 61.273 C 271.487 61.582,271.608 61.605,271.452 61.327 C 271.306 61.067,271.589 60.573,272.082 60.227 C 272.575 59.882,272.792 59.600,272.565 59.600 C 272.339 59.600,271.804 59.858,271.376 60.173 M132.800 62.151 C 132.800 62.234,133.070 62.526,133.400 62.800 C 133.891 63.208,134.000 63.180,134.000 62.649 C 134.000 62.292,133.730 62.000,133.400 62.000 C 133.070 62.000,132.800 62.068,132.800 62.151 M268.522 66.765 C 268.697 67.914,269.200 68.303,269.200 67.290 C 269.200 66.827,269.019 66.336,268.799 66.199 C 268.569 66.057,268.451 66.299,268.522 66.765 M285.726 67.500 C 285.589 67.885,285.401 68.380,285.309 68.600 C 285.216 68.820,285.424 68.651,285.770 68.224 C 286.399 67.448,286.589 66.800,286.187 66.800 C 286.071 66.800,285.863 67.115,285.726 67.500 M118.273 68.645 C 118.514 69.275,119.046 69.372,119.372 68.845 C 119.492 68.650,119.246 68.401,118.825 68.291 C 118.289 68.151,118.124 68.257,118.273 68.645 M284.639 69.538 C 284.500 69.761,284.582 70.065,284.820 70.212 C 285.435 70.593,285.832 70.072,285.318 69.558 C 285.031 69.271,284.807 69.264,284.639 69.538 M137.228 73.500 C 137.329 74.576,137.943 75.322,137.887 74.300 C 137.853 73.695,137.685 73.200,137.513 73.200 C 137.341 73.200,137.213 73.335,137.228 73.500 M282.388 76.816 C 282.065 77.020,281.980 77.196,282.200 77.207 C 282.420 77.217,282.251 77.490,281.824 77.813 C 281.396 78.136,281.234 78.400,281.462 78.400 C 281.955 78.400,283.406 76.872,283.153 76.619 C 283.056 76.523,282.712 76.611,282.388 76.816 M121.600 78.976 C 121.600 79.715,122.268 80.137,122.596 79.607 C 122.734 79.383,122.646 79.200,122.400 79.200 C 122.154 79.200,122.064 79.020,122.200 78.800 C 122.336 78.580,122.257 78.400,122.024 78.400 C 121.791 78.400,121.600 78.659,121.600 78.976 M264.146 79.922 C 263.909 80.075,263.593 80.920,263.443 81.800 C 263.248 82.945,263.287 83.229,263.579 82.800 C 263.804 82.470,263.991 81.810,263.994 81.333 C 263.997 80.857,264.225 80.386,264.500 80.288 C 264.775 80.190,264.905 80.005,264.788 79.877 C 264.672 79.748,264.383 79.769,264.146 79.922 M280.691 81.575 C 280.551 82.111,280.657 82.276,281.045 82.127 C 281.675 81.886,281.772 81.354,281.245 81.028 C 281.050 80.908,280.801 81.154,280.691 81.575 M183.900 81.876 C 183.515 81.976,183.200 82.225,183.200 82.429 C 183.200 82.953,183.674 82.870,184.576 82.187 C 185.354 81.599,185.210 81.533,183.900 81.876 M213.600 81.786 C 213.600 81.888,213.956 82.162,214.391 82.395 C 215.036 82.741,215.139 82.706,214.948 82.209 C 214.741 81.669,213.600 81.311,213.600 81.786 M178.628 82.755 C 178.508 82.950,178.754 83.199,179.175 83.309 C 179.711 83.449,179.876 83.343,179.727 82.955 C 179.486 82.325,178.954 82.228,178.628 82.755 M140.000 83.904 C 140.000 84.071,140.340 84.420,140.756 84.680 C 141.413 85.090,141.486 85.050,141.310 84.376 C 141.119 83.647,140.000 83.244,140.000 83.904 M229.850 85.386 C 229.938 85.614,230.446 85.825,230.980 85.856 C 231.707 85.898,231.840 85.794,231.510 85.442 C 230.968 84.862,229.631 84.816,229.850 85.386 M260.400 90.167 C 260.400 90.479,260.291 91.019,260.157 91.367 C 260.024 91.715,260.075 92.000,260.272 92.000 C 260.469 92.000,260.671 91.460,260.721 90.800 C 260.772 90.140,260.720 89.600,260.606 89.600 C 260.493 89.600,260.400 89.855,260.400 90.167 M55.376 91.380 C 54.627 91.940,54.632 91.952,55.506 91.732 C 56.005 91.606,56.510 91.345,56.630 91.152 C 56.968 90.604,56.236 90.738,55.376 91.380 M52.788 92.614 C 52.512 92.947,52.426 93.350,52.598 93.510 C 52.769 93.669,52.990 93.574,53.089 93.298 C 53.188 93.021,53.433 92.897,53.634 93.021 C 53.835 93.145,54.000 93.067,54.000 92.847 C 54.000 92.129,53.302 91.995,52.788 92.614 M126.302 93.267 C 126.407 93.670,126.641 94.000,126.822 94.000 C 127.002 94.000,127.125 93.670,127.095 93.267 C 127.065 92.863,126.831 92.533,126.575 92.533 C 126.319 92.533,126.196 92.863,126.302 93.267 M51.549 94.100 C 51.196 94.791,51.412 95.893,51.866 95.719 C 52.254 95.570,52.298 95.360,52.014 95.016 C 51.790 94.747,51.725 94.408,51.870 94.263 C 52.015 94.118,52.013 94.000,51.867 94.000 C 51.720 94.000,51.577 94.045,51.549 94.100 M50.400 96.521 C 50.400 97.301,50.558 97.514,51.010 97.341 C 51.508 97.150,51.529 96.986,51.123 96.453 C 50.850 96.094,50.575 95.725,50.513 95.633 C 50.451 95.542,50.400 95.941,50.400 96.521 M274.971 97.578 C 274.971 98.163,275.098 98.251,275.481 97.933 C 275.762 97.700,275.893 97.350,275.772 97.155 C 275.394 96.543,274.971 96.767,274.971 97.578 M350.000 100.176 C 350.000 100.493,350.161 100.852,350.358 100.974 C 350.770 101.229,351.266 100.200,350.906 99.839 C 350.477 99.410,350.000 99.587,350.000 100.176 M52.238 103.755 C 52.379 104.122,52.838 104.606,53.258 104.831 C 53.679 105.056,53.900 105.439,53.749 105.682 C 53.599 105.925,53.651 106.015,53.865 105.883 C 54.079 105.751,54.500 105.984,54.800 106.400 C 55.100 106.816,55.486 107.070,55.658 106.964 C 55.960 106.777,54.141 104.732,52.691 103.627 C 52.073 103.156,52.015 103.173,52.238 103.755 M272.832 105.657 C 272.813 106.270,273.063 106.815,273.425 106.954 C 273.769 107.086,273.957 107.346,273.843 107.531 C 273.729 107.715,273.867 107.867,274.151 107.867 C 274.435 107.867,274.667 107.627,274.667 107.333 C 274.667 107.040,274.442 106.800,274.167 106.800 C 273.892 106.800,273.486 106.305,273.265 105.700 L 272.863 104.600 272.832 105.657 M57.725 108.287 C 57.185 108.472,58.081 109.652,60.598 112.067 C 62.284 113.684,63.397 114.208,62.029 112.739 C 61.588 112.266,61.309 111.747,61.409 111.585 C 61.509 111.423,61.323 111.068,60.996 110.796 C 60.668 110.524,60.400 110.442,60.400 110.613 C 60.400 111.075,58.746 109.502,58.453 108.762 C 58.314 108.411,57.986 108.197,57.725 108.287 M120.933 109.785 C 120.933 110.073,121.209 110.269,121.545 110.220 C 122.438 110.089,122.537 109.381,121.672 109.315 C 121.266 109.285,120.933 109.496,120.933 109.785 M119.259 111.011 L 118.318 111.905 119.365 111.705 C 120.556 111.477,120.868 111.149,120.474 110.540 C 120.301 110.273,119.854 110.446,119.259 111.011 M326.519 112.585 C 325.860 113.356,325.175 113.855,324.996 113.694 C 324.818 113.532,324.819 113.655,325.000 113.966 C 325.261 114.416,325.519 114.309,326.264 113.443 C 326.779 112.845,327.205 112.500,327.212 112.678 C 327.219 112.855,327.415 112.671,327.649 112.270 C 328.408 110.964,327.746 111.149,326.519 112.585 M84.998 113.204 C 84.863 113.422,84.954 113.600,85.200 113.600 C 85.446 113.600,85.565 113.735,85.465 113.900 C 85.365 114.065,85.684 114.501,86.175 114.868 C 86.869 115.389,87.067 115.416,87.067 114.991 C 87.067 114.690,86.872 114.479,86.633 114.522 C 86.395 114.565,86.228 114.420,86.262 114.200 C 86.357 113.583,85.285 112.739,84.998 113.204 M348.117 114.119 C 347.632 114.389,347.362 114.790,347.517 115.010 C 347.688 115.251,348.152 115.051,348.686 114.505 C 349.664 113.506,349.465 113.370,348.117 114.119 M345.200 117.533 C 345.200 117.790,344.919 118.000,344.576 118.000 C 344.226 118.000,344.072 118.192,344.224 118.438 C 344.408 118.737,344.695 118.677,345.124 118.248 C 345.469 117.902,345.628 117.495,345.476 117.343 C 345.324 117.191,345.200 117.277,345.200 117.533 M67.000 118.800 C 67.879 119.772,68.236 119.804,68.566 118.943 C 68.777 118.394,68.718 118.370,68.209 118.792 C 67.653 119.254,67.429 119.085,67.553 118.300 C 67.579 118.135,67.302 118.000,66.938 118.000 C 66.343 118.000,66.349 118.081,67.000 118.800 M70.390 121.063 C 70.615 121.175,70.800 121.442,70.800 121.657 C 70.800 121.872,70.575 121.912,70.300 121.747 C 69.960 121.543,69.976 121.663,70.349 122.123 C 70.651 122.495,71.050 122.800,71.236 122.800 C 71.740 122.800,71.000 121.056,70.452 120.951 C 70.192 120.901,70.165 120.951,70.390 121.063 M108.243 122.233 C 107.905 123.112,107.930 123.200,108.514 123.200 C 108.797 123.200,109.029 122.840,109.029 122.400 C 109.029 121.443,108.582 121.348,108.243 122.233 M315.600 123.511 C 315.050 124.058,314.825 124.381,315.100 124.229 C 315.375 124.077,315.600 124.143,315.600 124.376 C 315.600 124.609,315.799 124.800,316.043 124.800 C 316.286 124.800,316.386 124.539,316.263 124.220 C 316.115 123.833,316.233 123.715,316.620 123.863 C 317.242 124.102,317.371 123.676,316.894 122.959 C 316.699 122.667,316.262 122.854,315.600 123.511 M95.838 123.539 C 95.723 123.725,96.162 124.389,96.814 125.014 C 97.466 125.638,98.000 125.930,98.000 125.662 C 98.000 125.394,97.731 125.072,97.402 124.946 C 97.074 124.819,96.907 124.551,97.032 124.348 C 97.157 124.146,97.021 124.030,96.730 124.090 C 96.438 124.151,96.245 123.975,96.300 123.700 C 96.414 123.129,96.149 123.036,95.838 123.539 M107.150 123.400 C 107.123 123.510,107.078 123.765,107.050 123.966 C 107.022 124.168,106.579 124.698,106.064 125.144 C 105.180 125.911,105.173 125.952,105.939 125.895 C 106.663 125.840,107.003 125.332,107.406 123.700 C 107.474 123.425,107.455 123.200,107.365 123.200 C 107.274 123.200,107.178 123.290,107.150 123.400 M291.028 124.355 C 290.908 124.550,291.185 124.807,291.645 124.928 C 292.104 125.048,292.380 125.308,292.258 125.506 C 292.135 125.705,292.266 125.867,292.548 125.867 C 292.943 125.867,292.962 125.651,292.631 124.936 C 292.193 123.991,291.425 123.712,291.028 124.355 M98.694 126.639 C 98.563 126.771,98.558 127.146,98.683 127.473 C 98.869 127.957,98.974 127.968,99.250 127.534 C 99.839 126.603,99.414 125.919,98.694 126.639 M104.400 127.000 C 104.400 127.330,104.580 127.600,104.800 127.600 C 105.020 127.600,105.200 127.330,105.200 127.000 C 105.200 126.670,105.020 126.400,104.800 126.400 C 104.580 126.400,104.400 126.670,104.400 127.000 M311.349 127.375 C 310.706 128.069,310.276 129.600,310.724 129.600 C 311.203 129.600,312.221 128.402,311.749 128.394 C 311.557 128.391,311.615 128.251,311.879 128.083 C 312.142 127.916,312.232 127.579,312.079 127.334 C 311.878 127.012,311.675 127.024,311.349 127.375 M294.809 128.257 C 294.804 128.729,295.096 129.228,295.457 129.367 C 296.413 129.733,296.441 129.512,295.582 128.394 C 294.842 127.432,294.818 127.428,294.809 128.257 M309.393 130.811 C 309.254 131.036,308.857 131.171,308.511 131.111 C 308.166 131.050,307.804 131.225,307.708 131.500 C 307.432 132.290,308.602 132.082,309.400 131.200 C 309.798 130.760,310.017 130.400,309.886 130.400 C 309.754 130.400,309.533 130.585,309.393 130.811 M298.800 133.600 C 298.800 133.820,299.025 134.003,299.300 134.006 C 299.633 134.010,299.600 134.142,299.200 134.400 C 298.870 134.613,298.795 134.791,299.033 134.794 C 299.689 134.803,299.970 134.386,299.730 133.761 C 299.483 133.118,298.800 133.000,298.800 133.600 M304.193 134.877 C 302.530 136.329,301.860 136.721,301.368 136.532 C 300.589 136.233,300.652 136.804,301.464 137.397 C 302.022 137.806,302.314 137.670,303.305 136.541 C 303.953 135.804,304.734 135.200,305.041 135.200 C 305.349 135.200,305.600 135.050,305.600 134.867 C 305.600 134.431,304.696 134.438,304.193 134.877 M312.332 149.375 C 311.811 150.069,311.784 150.267,312.209 150.267 C 312.510 150.267,312.721 150.072,312.678 149.833 C 312.635 149.595,312.825 149.445,313.100 149.500 C 313.375 149.555,313.600 149.431,313.600 149.224 C 313.600 148.441,312.975 148.515,312.332 149.375 M310.080 151.280 C 309.498 151.862,309.448 152.800,310.000 152.800 C 310.220 152.800,310.400 152.429,310.400 151.976 C 310.400 151.523,310.568 151.256,310.772 151.383 C 310.977 151.509,311.258 151.430,311.396 151.207 C 311.748 150.637,310.663 150.697,310.080 151.280 M313.354 162.629 C 313.989 163.944,315.200 165.167,315.200 164.492 C 315.200 164.268,314.933 163.983,314.607 163.858 C 314.235 163.715,314.109 163.363,314.270 162.915 C 314.412 162.522,314.382 162.332,314.203 162.494 C 314.025 162.655,313.628 162.475,313.320 162.094 C 312.883 161.551,312.890 161.668,313.354 162.629 M79.818 179.544 C 79.688 179.953,79.707 180.612,79.859 181.009 C 80.059 181.531,79.996 181.645,79.630 181.418 C 79.281 181.203,79.166 181.327,79.262 181.819 C 79.554 183.326,80.320 182.852,80.231 181.220 C 80.183 180.329,80.291 179.600,80.471 179.600 C 80.652 179.600,80.800 179.420,80.800 179.200 C 80.800 178.508,80.065 178.766,79.818 179.544 M319.467 186.667 C 319.072 187.061,319.143 188.400,319.558 188.400 C 319.754 188.400,319.889 187.950,319.858 187.400 C 319.826 186.850,319.785 186.400,319.767 186.400 C 319.748 186.400,319.613 186.520,319.467 186.667 M77.784 193.627 C 77.639 193.861,77.616 194.149,77.733 194.267 C 78.020 194.553,78.800 194.048,78.800 193.576 C 78.800 193.065,78.109 193.099,77.784 193.627 " stroke="none" fill="#f43c2c" fill-rule="evenodd"></path><path id="path3" d="" stroke="none" fill="#402018" fill-rule="evenodd"></path><path id="path4" d="M197.200 13.911 C 197.200 14.081,197.920 14.152,198.800 14.069 C 199.680 13.985,200.400 13.845,200.400 13.758 C 200.400 13.671,199.680 13.600,198.800 13.600 C 197.920 13.600,197.200 13.740,197.200 13.911 M204.576 15.813 C 205.004 16.136,205.533 16.400,205.753 16.400 C 205.973 16.400,205.804 16.136,205.376 15.813 C 204.949 15.490,204.420 15.225,204.200 15.225 C 203.980 15.225,204.149 15.490,204.576 15.813 M207.390 51.200 C 207.390 68.030,207.440 74.915,207.500 66.500 C 207.560 58.085,207.560 44.315,207.500 35.900 C 207.440 27.485,207.390 34.370,207.390 51.200 M139.407 79.079 C 140.007 80.514,140.400 81.162,140.400 80.716 C 140.400 80.284,139.185 77.600,138.989 77.600 C 138.879 77.600,139.067 78.266,139.407 79.079 M140.133 81.665 C 140.133 81.978,140.373 82.459,140.667 82.733 C 140.960 83.007,141.200 83.079,141.200 82.892 C 141.200 82.706,140.960 82.225,140.667 81.824 C 140.279 81.294,140.133 81.250,140.133 81.665 M262.800 82.600 C 262.800 83.150,262.869 83.600,262.953 83.600 C 263.038 83.600,263.193 83.150,263.298 82.600 C 263.403 82.050,263.334 81.600,263.145 81.600 C 262.955 81.600,262.800 82.050,262.800 82.600 M124.828 89.076 C 124.918 90.115,125.544 90.996,125.572 90.124 C 125.587 89.642,125.420 89.136,125.200 89.000 C 124.980 88.864,124.813 88.898,124.828 89.076 M250.400 92.400 C 250.400 92.620,250.760 92.800,251.200 92.800 C 251.640 92.800,252.000 92.980,252.000 93.200 C 252.000 93.420,252.180 93.600,252.400 93.600 C 253.162 93.600,252.795 92.926,251.781 92.464 C 250.538 91.898,250.400 91.891,250.400 92.400 M253.600 93.800 C 253.874 94.130,254.421 94.400,254.816 94.400 C 255.210 94.400,255.624 94.625,255.735 94.900 C 255.877 95.250,255.946 95.259,255.968 94.929 C 255.986 94.670,255.432 94.175,254.739 93.829 C 253.169 93.046,252.970 93.041,253.600 93.800 M128.428 99.876 C 128.413 100.358,128.580 100.864,128.800 101.000 C 129.273 101.292,129.273 100.901,128.800 99.800 C 128.469 99.029,128.455 99.031,128.428 99.876 M332.230 106.441 C 328.507 110.158,325.546 113.200,325.651 113.200 C 326.182 113.200,339.600 100.322,339.600 99.812 C 339.600 99.199,338.426 100.255,332.230 106.441 M51.225 102.600 C 51.225 102.820,51.490 103.349,51.813 103.776 C 52.136 104.204,52.400 104.373,52.400 104.153 C 52.400 103.933,52.136 103.404,51.813 102.976 C 51.490 102.549,51.225 102.380,51.225 102.600 M127.429 104.209 C 127.005 104.529,126.735 104.868,126.829 104.961 C 126.923 105.055,127.425 104.787,127.944 104.366 C 129.038 103.479,128.579 103.339,127.429 104.209 M78.400 106.236 C 78.400 106.366,79.870 107.851,81.667 109.536 C 83.465 111.221,86.615 114.307,88.667 116.393 C 90.720 118.479,92.400 120.024,92.400 119.827 C 92.400 119.451,78.989 106.000,78.615 106.000 C 78.497 106.000,78.400 106.106,78.400 106.236 M275.200 107.936 C 275.200 108.120,275.695 108.495,276.300 108.767 L 277.400 109.263 276.517 108.431 C 275.569 107.540,275.200 107.401,275.200 107.936 M279.854 111.798 C 279.981 112.126,280.246 112.295,280.445 112.172 C 280.643 112.050,280.914 112.231,281.046 112.575 C 281.178 112.919,281.564 113.200,281.905 113.200 C 282.319 113.200,282.140 112.869,281.362 112.200 C 280.042 111.065,279.520 110.926,279.854 111.798 M62.000 113.748 C 62.000 113.907,62.450 114.486,63.000 115.036 C 63.550 115.586,64.000 115.880,64.000 115.688 C 64.000 115.496,63.550 114.917,63.000 114.400 C 62.450 113.883,62.000 113.590,62.000 113.748 M323.422 115.400 C 322.374 116.390,321.670 117.197,321.858 117.194 C 322.452 117.183,326.096 113.600,325.513 113.600 C 325.411 113.600,324.470 114.410,323.422 115.400 M113.804 115.596 C 113.174 116.254,112.745 116.879,112.852 116.985 C 112.958 117.091,113.634 116.553,114.355 115.789 C 115.075 115.025,115.504 114.400,115.307 114.400 C 115.111 114.400,114.434 114.938,113.804 115.596 M285.390 116.790 C 286.690 118.104,287.827 119.107,287.915 119.019 C 288.117 118.817,283.724 114.400,283.321 114.400 C 283.158 114.400,284.089 115.475,285.390 116.790 M289.227 120.400 C 289.226 120.730,289.490 121.349,289.813 121.776 C 290.560 122.764,290.552 122.115,289.800 120.800 C 289.468 120.220,289.228 120.052,289.227 120.400 M72.139 124.000 C 72.891 124.660,73.647 125.200,73.819 125.200 C 74.353 125.200,71.832 122.823,71.286 122.811 C 71.003 122.805,71.387 123.340,72.139 124.000 M74.653 126.300 C 75.080 126.685,75.827 127.519,76.314 128.154 C 76.801 128.789,77.200 129.133,77.200 128.918 C 77.200 128.361,74.777 125.600,74.288 125.600 C 74.062 125.600,74.227 125.915,74.653 126.300 M99.600 127.111 C 99.600 127.537,101.113 128.800,101.623 128.800 C 101.850 128.800,101.586 128.350,101.036 127.800 C 100.003 126.767,99.600 126.574,99.600 127.111 M331.206 131.610 C 328.485 134.245,326.458 136.400,326.702 136.400 C 327.211 136.400,336.572 127.238,336.320 126.987 C 336.228 126.895,333.927 128.976,331.206 131.610 M309.599 129.002 C 309.083 129.551,308.754 130.000,308.869 130.000 C 309.266 130.000,310.927 128.394,310.732 128.199 C 310.625 128.091,310.114 128.452,309.599 129.002 M296.245 129.412 C 296.610 129.969,296.986 130.347,297.082 130.251 C 297.319 130.014,296.284 128.400,295.895 128.400 C 295.722 128.400,295.880 128.856,296.245 129.412 M78.400 130.186 C 78.400 130.728,88.332 140.201,88.610 139.924 C 88.692 139.841,86.429 137.561,83.580 134.857 C 80.731 132.153,78.400 130.051,78.400 130.186 M89.867 141.067 C 89.749 141.184,90.266 141.892,91.014 142.641 C 91.921 143.547,92.289 144.223,92.119 144.666 C 91.948 145.113,92.017 145.236,92.332 145.042 C 92.589 144.883,92.800 144.487,92.800 144.163 C 92.800 143.492,90.193 140.740,89.867 141.067 M80.006 176.500 C 80.011 177.228,80.086 177.285,80.400 176.800 C 80.901 176.024,80.901 175.600,80.400 175.600 C 80.180 175.600,80.003 176.005,80.006 176.500 M78.428 185.100 C 78.453 186.075,78.495 186.109,78.800 185.400 C 79.269 184.307,79.269 184.000,78.800 184.000 C 78.580 184.000,78.413 184.495,78.428 185.100 M77.600 192.000 C 77.600 192.880,77.671 193.600,77.758 193.600 C 77.845 193.600,77.985 192.880,78.069 192.000 C 78.152 191.120,78.081 190.400,77.911 190.400 C 77.740 190.400,77.600 191.120,77.600 192.000 M321.103 246.600 C 321.046 272.230,321.135 293.200,321.300 293.200 C 321.465 293.200,321.600 272.230,321.600 246.600 C 321.600 220.970,321.511 200.000,321.403 200.000 C 321.295 200.000,321.160 220.970,321.103 246.600 " stroke="none" fill="#fc4018" fill-rule="evenodd"></path></g></svg>